<svg xmlns="http://www.w3.org/2000/svg"  viewBox="0 0 100 100" width="100px" height="100px"><path d="M52.003,96c-24.262,0-44-19.605-44-43.703v-2.805 c0-0.104,0.003-0.208,0.01-0.312c0.902-14.462,8.578-26.99,21.06-34.372l9.805-5.883C39.885,8.321,41.042,8,42.22,8 c1.863,0,3.615,0.788,4.85,2.171l0.447-0.418c1.203-1.129,2.781-1.753,4.438-1.753c0.393,0,0.785,0.036,1.171,0.107 c1.271,0.206,2.431,0.772,3.365,1.646l0.446,0.418C58.17,8.788,59.923,8,61.786,8c1.18,0,2.338,0.322,3.349,0.93l9.83,5.898 c12.45,7.365,20.123,19.857,21.025,34.258c0.007,0.103,0.01,0.205,0.01,0.308l0.003,2.898C96.003,76.395,76.265,96,52.003,96z" opacity=".35"/><path fill="#f2f2f2" d="M50.003,94c-24.262,0-44-19.605-44-43.703v-2.805c0-0.104,0.003-0.208,0.01-0.312 c0.902-14.462,8.578-26.99,21.06-34.372l9.805-5.883C37.885,6.321,39.042,6,40.22,6c1.863,0,3.615,0.788,4.85,2.171l0.447-0.418 c1.203-1.129,2.781-1.753,4.438-1.753c0.393,0,0.785,0.036,1.171,0.107c1.271,0.206,2.431,0.772,3.365,1.646l0.446,0.418 C56.17,6.788,57.923,6,59.786,6c1.18,0,2.338,0.322,3.349,0.93l9.83,5.898c12.45,7.365,20.123,19.857,21.025,34.258 c0.007,0.103,0.01,0.205,0.01,0.308l0.003,2.898C94.003,74.395,74.265,94,50.003,94z"/><path fill="#f4665c" d="M69.625,18.404l-9.84-5.904l7.688,8.472c5.601,6.323,8.617,12.307,8.617,19.246 c0,9.346-5.475,13.043-11.413,13.043c-7.909,0-9.783-6.168-9.783-8.152c0-6.382,5.785-11.669,11.018-13.513l2.592-0.911 l-7.658-7.355c-0.822,0.525-1.396,0.92-1.396,0.92c-0.682,0.466-1.696,1.249-2.896,2.447c0,0-1.79,2.005-3.293,3.739 c0-3.261,0.582-5.374,0.582-5.374c0.582-1.875,1.689-3.372,2.591-4.353l1.159-1.148L50.05,12.5l-0.047,0.041L49.956,12.5 l-7.546,7.057l1.158,1.149c0.9,0.982,2.009,2.478,2.591,4.353c0.002,0.002,0.584,2.115,0.584,5.376 c-1.911-2.472-3.293-3.739-3.293-3.739c-1.198-1.198-2.213-1.979-2.896-2.447c0,0-0.574-0.395-1.396-0.92l-7.658,7.355l2.592,0.911 c5.235,1.844,11.02,7.132,11.02,13.513c0,1.984-1.873,8.152-9.783,8.152c-5.938,0-11.413-3.698-11.413-13.043 c0-6.939,3.016-12.923,8.617-19.246L40.22,12.5l-9.84,5.904c-10.595,6.266-17.11,16.828-17.878,29.089v2.804 c0,20.514,16.823,37.203,37.5,37.203s37.5-16.689,37.5-37.203v-2.804C86.735,35.232,80.22,24.67,69.625,18.404z"/><path fill="none" stroke="#40396e" stroke-linecap="round" stroke-linejoin="round" stroke-miterlimit="10" stroke-width="3" d="M69.625,18.404l-9.84-5.904l7.688,8.472c5.601,6.323,8.617,12.307,8.617,19.246c0,9.346-5.475,13.043-11.413,13.043 c-7.909,0-9.783-6.168-9.783-8.152c0-6.382,5.785-11.669,11.018-13.513l2.592-0.911l-7.658-7.355 c-0.822,0.525-1.396,0.92-1.396,0.92c-0.682,0.466-1.696,1.249-2.896,2.447c0,0-1.79,2.005-3.293,3.739 c0-3.261,0.582-5.374,0.582-5.374c0.582-1.875,1.689-3.372,2.591-4.353l1.159-1.148L50.05,12.5l-0.047,0.041L49.956,12.5 l-7.546,7.057l1.158,1.149c0.9,0.982,2.009,2.478,2.591,4.353c0.002,0.002,0.584,2.115,0.584,5.376 c-1.911-2.472-3.293-3.739-3.293-3.739c-1.198-1.198-2.213-1.979-2.896-2.447c0,0-0.574-0.395-1.396-0.92l-7.658,7.355l2.592,0.911 c5.235,1.844,11.02,7.132,11.02,13.513c0,1.984-1.873,8.152-9.783,8.152c-5.938,0-11.413-3.698-11.413-13.043 c0-6.939,3.016-12.923,8.617-19.246L40.22,12.5l-9.84,5.904c-10.595,6.266-17.11,16.828-17.878,29.089v2.804 c0,20.514,16.823,37.203,37.5,37.203s37.5-16.689,37.5-37.203v-2.804C86.735,35.232,80.22,24.67,69.625,18.404z"/></svg>